# File produced by Open Asset Import Library (http://www.assimp.sf.net)
# (assimp v3.1.187496374)

mtllib spc.obj.mtl

# 260 vertex positions
v  9.25351 -2.56262 0
v  8.74322 -3.28573 0
v  8.82653 -2.34413 0
v  9.03481 0.303811 0
v  9.71693 3.45637 0
v  9.15978 -3.54584 0
v  8.65991 -3.9152 0
v  9.07126 -4.21693 0
v  8.57139 -4.31057 0
v  8.98274 -4.64872 0
v  8.47246 -4.52907 0
v  8.8786 -4.90883 0
v  8.75364 -5.0597 0
v  8.33708 -4.64872 0
v  8.63388 -5.14293 0
v  8.47767 -5.23137 0
v  8.12359 -4.75797 0
v  8.34229 -5.27299 0
v  7.98821 -4.80999 0
v  8.16004 -5.2938 0
v  7.72786 -4.8308 0
v  7.9049 -5.299 0
v  7.55083 -5.27819 0
v  7.24361 -4.79958 0
v  7.06137 -5.23657 0
v  5.18686 -4.6123 0
v  3.39045 -4.86201 0
v  3.94239 -4.50826 0
v  2.6823 -4.41982 0
v  2.69272 -4.79958 0
v  1.46387 -4.74236 0
v  0.208987 -4.28456 0
v  -0.957376 -4.65912 0
v  -0.952169 -4.23774 0
v  -2.7642 -4.20133 0
v  -4.1857 -4.6071 0
v  -4.52416 -4.20133 0
v  -5.18544 -5.57472 0
v  -6.14353 -5.9909 0
v  -6.40908 -6.7036 0
v  -6.51322 -6.38627 0
v  -6.85688 -6.6984 0
v  -6.76316 -6.63077 0
v  -6.95061 -7.1666 0
v  -7.15368 -7.26024 0
v  -6.80481 -6.28742 0
v  -7.10161 -7.28105 0
v  -7.15368 -7.29666 0
v  -6.77878 -4.86721 0
v  -6.48719 -4.23254 0
v  -6.73191 -4.45103 0
v  -6.74233 -4.44063 0
v  -6.81002 -4.21173 0
v  -6.99747 -4.44063 0
v  -8.15863 -4.19612 0
v  -8.12218 -4.52387 0
v  -8.52311 -4.17532 0
v  -8.50229 -4.48745 0
v  -8.79908 -4.34699 0
v  -8.74701 -4.1337 0
v  -9.05943 -4.1493 0
v  -8.95009 -4.03485 0
v  -9.06464 -3.96202 0
v  -9.1844 -3.84237 0
v  -9.46558 -3.79555 0
v  -9.27813 -3.63948 0
v  -9.35623 -3.29094 0
v  -9.58534 -2.83314 0
v  -9.42913 -2.7395 0
v  -9.50723 -1.92795 0
v  -9.80403 -0.356873 0
v  -9.96545 3.95578 0
v  -10.0644 3.13903 0
v  -10.1373 4.40317 0
v  -9.99669 4.48641 0
v  -10.0019 4.83496 0
v  -10.1373 5.08467 0
v  -9.99148 5.04305 0
v  -10.1217 5.18871 0
v  -9.96545 5.1731 0
v  -10.0956 5.27195 0
v  -9.89776 5.30836 0
v  -10.0019 5.41241 0
v  -9.82486 5.42281 0
v  -9.87172 5.55287 0
v  -9.69989 5.54767 0
v  -9.67906 5.71414 0
v  -9.52806 5.65691 0
v  -9.38747 5.865 0
v  -9.29375 5.74535 0
v  -8.97091 5.97945 0
v  -8.97091 5.82859 0
v  -8.55436 5.90662 0
v  -8.50229 6.06269 0
v  -7.14847 6.24997 0
v  -6.40387 6.19274 0
v  -5.8259 6.41124 0
v  -4.41481 6.5621 0
v  -3.60252 6.48927 0
v  -2.95165 6.70256 0
v  -1.45725 6.83262 0
v  0.125676 6.8014 0
v  0.026743 6.94707 0
v  1.46908 7.04071 0
v  3.79139 7.00429 0
v  2.50006 7.09793 0
v  4.89527 7.21238 0
v  6.45736 7.09273 0
v  6.40008 7.24359 0
v  8.01945 7.10313 0
v  8.21732 7.2488 0
v  8.47246 7.09273 0
v  8.58181 7.22799 0
v  8.74843 7.06152 0
v  8.85778 7.18117 0
v  8.91505 7.00949 0
v  9.07126 7.10834 0
v  9.15457 6.84822 0
v  9.23789 7.00429 0
v  9.3993 6.85343 0
v  9.31599 6.65054 0
v  9.53468 6.70776 0
v  9.40451 6.39563 0
v  9.70131 6.49967 0
v  9.43575 6.15633 0
v  9.78462 6.34881 0
v  9.83148 6.18754 0
v  9.37327 4.99103 0
v  9.8419 5.43842 0
v  9.86272 5.97945 0
v  8.82653 -2.34413 1
v  8.74322 -3.28573 1
v  9.25351 -2.56262 1
v  9.03481 0.303811 1
v  9.15978 -3.54584 1
v  8.65991 -3.9152 1
v  9.71693 3.45637 1
v  9.37327 4.99103 1
v  9.8419 5.43842 1
v  9.43575 6.15633 1
v  9.86272 5.97945 1
v  9.78462 6.34881 1
v  9.40451 6.39563 1
v  9.83148 6.18754 1
v  9.70131 6.49967 1
v  9.53468 6.70776 1
v  9.31599 6.65054 1
v  9.3993 6.85343 1
v  9.15457 6.84822 1
v  9.23789 7.00429 1
v  8.91505 7.00949 1
v  9.07126 7.10834 1
v  8.74843 7.06152 1
v  8.85778 7.18117 1
v  8.58181 7.22799 1
v  8.47246 7.09273 1
v  8.21732 7.2488 1
v  8.01945 7.10313 1
v  6.40008 7.24359 1
v  6.45736 7.09273 1
v  4.89527 7.21238 1
v  3.79139 7.00429 1
v  2.50006 7.09793 1
v  0.125676 6.8014 1
v  1.46908 7.04071 1
v  0.026743 6.94707 1
v  -1.45725 6.83262 1
v  -3.60252 6.48927 1
v  -2.95165 6.70256 1
v  -4.41481 6.5621 1
v  -6.40387 6.19274 1
v  -5.8259 6.41124 1
v  -7.14847 6.24997 1
v  -8.55436 5.90662 1
v  -8.50229 6.06269 1
v  -8.97091 5.97945 1
v  -8.97091 5.82859 1
v  -9.29375 5.74535 1
v  -9.38747 5.865 1
v  -9.52806 5.65691 1
v  -9.67906 5.71414 1
v  -9.69989 5.54767 1
v  -9.87172 5.55287 1
v  -9.82486 5.42281 1
v  -10.0019 5.41241 1
v  -9.89776 5.30836 1
v  -10.0956 5.27195 1
v  -9.96545 5.1731 1
v  -10.1217 5.18871 1
v  -10.1373 5.08467 1
v  -9.99148 5.04305 1
v  -10.1373 4.40317 1
v  -10.0019 4.83496 1
v  -9.99669 4.48641 1
v  -9.96545 3.95578 1
v  -10.0644 3.13903 1
v  -9.50723 -1.92795 1
v  -9.80403 -0.356873 1
v  -9.58534 -2.83314 1
v  -9.42913 -2.7395 1
v  -9.35623 -3.29094 1
v  -9.46558 -3.79555 1
v  -9.27813 -3.63948 1
v  -9.05943 -4.1493 1
v  -9.1844 -3.84237 1
v  -8.74701 -4.1337 1
v  -8.95009 -4.03485 1
v  -8.79908 -4.34699 1
v  -9.06464 -3.96202 1
v  -8.52311 -4.17532 1
v  -8.50229 -4.48745 1
v  -8.15863 -4.19612 1
v  -8.12218 -4.52387 1
v  -6.81002 -4.21173 1
v  -6.99747 -4.44063 1
v  -6.74233 -4.44063 1
v  -6.48719 -4.23254 1
v  -6.73191 -4.45103 1
v  -6.77878 -4.86721 1
v  -6.80481 -6.28742 1
v  -7.15368 -7.26024 1
v  -6.85688 -6.6984 1
v  -7.10161 -7.28105 1
v  -6.95061 -7.1666 1
v  -7.15368 -7.29666 1
v  -6.76316 -6.63077 1
v  -6.40908 -6.7036 1
v  -6.51322 -6.38627 1
v  -5.18544 -5.57472 1
v  -6.14353 -5.9909 1
v  -4.52416 -4.20133 1
v  -4.1857 -4.6071 1
v  -2.7642 -4.20133 1
v  -0.957376 -4.65912 1
v  -0.952169 -4.23774 1
v  0.208987 -4.28456 1
v  1.46387 -4.74236 1
v  2.6823 -4.41982 1
v  2.69272 -4.79958 1
v  3.39045 -4.86201 1
v  3.94239 -4.50826 1
v  7.06137 -5.23657 1
v  5.18686 -4.6123 1
v  7.24361 -4.79958 1
v  7.55083 -5.27819 1
v  7.72786 -4.8308 1
v  7.9049 -5.299 1
v  7.98821 -4.80999 1
v  8.16004 -5.2938 1
v  8.12359 -4.75797 1
v  8.34229 -5.27299 1
v  8.47767 -5.23137 1
v  8.33708 -4.64872 1
v  8.63388 -5.14293 1
v  8.47246 -4.52907 1
v  8.75364 -5.0597 1
v  8.57139 -4.31057 1
v  8.98274 -4.64872 1
v  8.8786 -4.90883 1
v  9.07126 -4.21693 1

# 0 UV coordinates

# 129 vertex normals
vn 0 0 -1
vn 0 0 1
vn 0.604037 -0.796956 0
vn 0.649848 -0.760064 0
vn 0.678076 -0.734991 0
vn 0.695468 -0.718557 0
vn -0.0161123 -0.99987 0
vn -0.034357 -0.99941 0
vn -0.0465173 -0.998917 0
vn -0.0891147 -0.996021 0
vn -0.101508 -0.994835 0
vn -0.0847232 -0.996405 0
vn -0.0586687 -0.998278 0
vn 0.0203853 -0.999792 0
vn 0.113445 -0.993544 0
vn 0.293841 -0.955854 0
vn 0.492673 -0.870215 0
vn 0.570714 -0.821149 0
vn 0.770109 -0.637912 0
vn 0.92836 -0.371682 0
vn 0.979626 -0.200829 0
vn 0.991413 -0.13077 0
vn 0.995487 -0.0948947 0
vn 0.997049 -0.076766 0
vn 0.998018 -0.0629246 0
vn 0.99926 -0.0384681 0
vn 0.988917 0.148473 0
vn 0.960278 0.279044 0
vn 0.875391 0.483415 0
vn 0.780591 0.625042 0
vn 0.732484 0.680784 0
vn 0.682825 0.730582 0
vn 0.529652 0.848215 0
vn 0.32288 0.94644 0
vn 0.167267 0.985912 0
vn 0.056998 0.998374 0
vn -0.00286271 0.999996 0
vn -0.0207379 0.999785 0
vn -0.0477281 0.99886 0
vn -0.0554197 0.998463 0
vn -0.0647864 0.997899 0
vn -0.0768944 0.997039 0
vn -0.086701 0.996234 0
vn -0.0955586 0.995424 0
vn -0.106308 0.994333 0
vn -0.12104 0.992648 0
vn -0.137031 0.990567 0
vn -0.174879 0.98459 0
vn -0.264932 0.964267 0
vn -0.459524 0.888165 0
vn -0.641876 0.766808 0
vn -0.733452 0.679741 0
vn -0.831817 0.55505 0
vn -0.954403 0.298523 0
vn -0.988917 0.148473 0
vn -1 0 0
vn -0.998341 -0.05757 0
vn -0.997238 -0.0742669 0
vn -0.996123 -0.0879733 0
vn -0.992346 -0.123485 0
vn -0.656795 -0.754069 0
vn -0.604734 -0.796428 0
vn -0.427768 -0.903889 0
vn -0.0953665 -0.995442 0
vn 0.0738048 -0.997273 0
vn 0 -1 0
vn -0.706785 -0.707429 0
vn -0.99372 0.111895 0
vn -0.98795 0.154776 0
vn 0.287108 -0.957898 0
vn 0.992069 -0.125693 0
vn 0.988264 -0.152757 0
vn 0.0643239 0.997929 0
vn 0.0115717 0.999933 0
vn 0.182747 0.98316 0
vn 0.437647 0.899147 0
vn 0.536527 0.843883 0
vn 0.706785 0.707429 0
vn 0.907814 0.419373 0
vn 0.975801 0.218662 0
vn 0.991375 0.131056 0
vn 0.995401 0.0957988 0
vn 0.996981 0.0776431 0
vn 0.998271 0.0587753 0
vn 0.999888 0.0149373 0
vn 0.99875 -0.049983 0
vn 0.980546 -0.196288 0
vn 0.894264 -0.44754 0
vn 0.84344 -0.537224 0
vn 0.706785 -0.707429 0
vn 0.536527 -0.843883 0
vn 0.353119 -0.935578 0
vn 0.249665 -0.968332 0
vn 0.184126 -0.982903 0
vn 0.131888 -0.991265 0
vn 0.105263 -0.994444 0
vn 0.0834307 -0.996514 0
vn 0.0552627 -0.998472 0
vn 0.0331547 -0.99945 0
vn 0.00666045 -0.999978 0
vn -0.0229615 -0.999736 0
vn -0.112388 -0.993664 0
vn -0.298028 -0.954557 0
vn -0.558503 -0.829502 0
vn -0.774583 -0.632472 0
vn -0.944664 -0.328039 0
vn -0.991585 -0.129455 0
vn -0.998566 0.0535433 0
vn -0.997403 0.0720203 0
vn -0.996921 0.0784149 0
vn -0.996109 0.088134 0
vn -0.991355 0.131208 0
vn -0.975842 0.218479 0
vn -0.910967 0.41248 0
vn -0.662235 0.749296 0
vn -0.455547 0.890212 0
vn -0.358694 0.933455 0
vn -0.0796731 0.996821 0
vn 0.0906811 0.99588 0
vn 0.0833151 0.996523 0
vn 0.0700118 0.997546 0
vn 0.0546054 0.998508 0
vn 0.0402893 0.999188 0
vn 0.0200926 0.999798 0
vn 0 1 0
vn -0.741487 0.670967 0
vn -0.730425 0.682993 0
vn -0.699299 0.714829 0
vn -0.58514 0.810932 0

# Mesh 'OpenSCAD_Model' with 520 faces
g OpenSCAD_Model
usemtl DefaultMaterial
f  1//1 2//1 3//1
f  3//1 4//1 1//1
f  4//1 5//1 1//1
f  6//1 2//1 1//1
f  7//1 2//1 6//1
f  8//1 7//1 6//1
f  9//1 7//1 8//1
f  8//1 10//1 9//1
f  10//1 11//1 9//1
f  10//1 12//1 11//1
f  13//1 14//1 11//1
f  12//1 13//1 11//1
f  13//1 15//1 14//1
f  15//1 16//1 14//1
f  14//1 16//1 17//1
f  17//1 16//1 18//1
f  19//1 17//1 20//1
f  17//1 18//1 20//1
f  21//1 19//1 22//1
f  19//1 20//1 22//1
f  23//1 24//1 21//1
f  21//1 22//1 23//1
f  24//1 23//1 25//1
f  26//1 24//1 25//1
f  27//1 26//1 25//1
f  27//1 28//1 26//1
f  29//1 28//1 27//1
f  30//1 29//1 27//1
f  31//1 29//1 30//1
f  31//1 32//1 29//1
f  31//1 33//1 32//1
f  33//1 34//1 32//1
f  33//1 35//1 34//1
f  36//1 35//1 33//1
f  37//1 35//1 36//1
f  36//1 38//1 37//1
f  38//1 39//1 37//1
f  40//1 39//1 38//1
f  40//1 41//1 39//1
f  40//1 42//1 43//1
f  40//1 44//1 42//1
f  43//1 41//1 40//1
f  44//1 45//1 42//1
f  42//1 45//1 46//1
f  44//1 47//1 45//1
f  45//1 47//1 48//1
f  46//1 45//1 49//1
f  49//1 50//1 46//1
f  49//1 51//1 50//1
f  50//1 52//1 53//1
f  51//1 52//1 50//1
f  54//1 53//1 52//1
f  54//1 55//1 53//1
f  56//1 55//1 54//1
f  57//1 55//1 58//1
f  56//1 58//1 55//1
f  59//1 57//1 58//1
f  60//1 57//1 59//1
f  60//1 59//1 61//1
f  62//1 60//1 61//1
f  63//1 62//1 61//1
f  64//1 63//1 61//1
f  65//1 64//1 61//1
f  65//1 66//1 64//1
f  65//1 67//1 66//1
f  65//1 68//1 67//1
f  67//1 68//1 69//1
f  69//1 68//1 70//1
f  70//1 68//1 71//1
f  71//1 72//1 70//1
f  73//1 72//1 71//1
f  72//1 74//1 75//1
f  72//1 73//1 74//1
f  76//1 74//1 77//1
f  75//1 74//1 76//1
f  76//1 77//1 78//1
f  79//1 80//1 77//1
f  77//1 80//1 78//1
f  79//1 81//1 80//1
f  80//1 81//1 82//1
f  82//1 81//1 83//1
f  82//1 83//1 84//1
f  84//1 83//1 85//1
f  86//1 84//1 85//1
f  87//1 86//1 85//1
f  87//1 88//1 86//1
f  87//1 89//1 88//1
f  88//1 89//1 90//1
f  91//1 90//1 89//1
f  92//1 90//1 91//1
f  93//1 92//1 91//1
f  94//1 93//1 91//1
f  94//1 95//1 93//1
f  95//1 96//1 93//1
f  95//1 97//1 96//1
f  98//1 96//1 97//1
f  99//1 96//1 98//1
f  100//1 99//1 98//1
f  100//1 101//1 99//1
f  101//1 102//1 99//1
f  103//1 102//1 101//1
f  103//1 104//1 102//1
f  104//1 105//1 102//1
f  106//1 105//1 104//1
f  107//1 108//1 105//1
f  107//1 105//1 106//1
f  108//1 107//1 109//1
f  110//1 108//1 109//1
f  111//1 110//1 109//1
f  112//1 110//1 111//1
f  111//1 113//1 112//1
f  113//1 114//1 112//1
f  113//1 115//1 114//1
f  115//1 116//1 114//1
f  115//1 117//1 116//1
f  117//1 118//1 116//1
f  117//1 119//1 118//1
f  118//1 119//1 120//1
f  121//1 118//1 120//1
f  121//1 120//1 122//1
f  123//1 121//1 122//1
f  123//1 122//1 124//1
f  125//1 123//1 126//1
f  123//1 124//1 126//1
f  125//1 126//1 127//1
f  128//1 125//1 129//1
f  127//1 130//1 125//1
f  125//1 130//1 129//1
f  128//1 129//1 5//1
f  5//1 4//1 128//1
f  131//2 132//2 133//2
f  133//2 134//2 131//2
f  135//2 132//2 136//2
f  133//2 132//2 135//2
f  133//2 137//2 134//2
f  138//2 134//2 137//2
f  137//2 139//2 138//2
f  139//2 140//2 138//2
f  139//2 141//2 140//2
f  142//2 143//2 140//2
f  144//2 142//2 140//2
f  140//2 141//2 144//2
f  142//2 145//2 143//2
f  145//2 146//2 143//2
f  146//2 147//2 143//2
f  146//2 148//2 147//2
f  148//2 149//2 147//2
f  148//2 150//2 149//2
f  151//2 149//2 152//2
f  149//2 150//2 152//2
f  153//2 151//2 154//2
f  151//2 152//2 154//2
f  153//2 154//2 155//2
f  156//2 153//2 155//2
f  156//2 155//2 157//2
f  157//2 158//2 156//2
f  159//2 158//2 157//2
f  159//2 160//2 158//2
f  159//2 161//2 160//2
f  162//2 160//2 161//2
f  163//2 162//2 161//2
f  164//2 162//2 165//2
f  165//2 162//2 163//2
f  164//2 165//2 166//2
f  167//2 164//2 166//2
f  168//2 164//2 167//2
f  168//2 167//2 169//2
f  170//2 168//2 169//2
f  170//2 171//2 168//2
f  172//2 171//2 170//2
f  171//2 172//2 173//2
f  174//2 171//2 173//2
f  174//2 173//2 175//2
f  176//2 177//2 174//2
f  176//2 174//2 175//2
f  176//2 178//2 177//2
f  179//2 178//2 176//2
f  178//2 179//2 180//2
f  180//2 179//2 181//2
f  182//2 180//2 181//2
f  183//2 182//2 181//2
f  183//2 184//2 182//2
f  183//2 185//2 184//2
f  184//2 185//2 186//2
f  185//2 187//2 186//2
f  186//2 187//2 188//2
f  188//2 187//2 189//2
f  190//2 188//2 189//2
f  191//2 188//2 190//2
f  190//2 192//2 193//2
f  191//2 190//2 193//2
f  193//2 192//2 194//2
f  194//2 192//2 195//2
f  192//2 196//2 195//2
f  197//2 195//2 198//2
f  198//2 195//2 196//2
f  197//2 199//2 200//2
f  198//2 199//2 197//2
f  200//2 199//2 201//2
f  201//2 199//2 202//2
f  203//2 201//2 202//2
f  204//2 205//2 202//2
f  205//2 203//2 202//2
f  204//2 206//2 207//2
f  204//2 208//2 206//2
f  204//2 207//2 209//2
f  204//2 209//2 205//2
f  208//2 210//2 206//2
f  211//2 210//2 208//2
f  211//2 212//2 210//2
f  212//2 211//2 213//2
f  214//2 212//2 215//2
f  215//2 212//2 213//2
f  214//2 216//2 217//2
f  216//2 214//2 215//2
f  217//2 216//2 218//2
f  217//2 218//2 219//2
f  220//2 217//2 219//2
f  219//2 221//2 220//2
f  220//2 221//2 222//2
f  221//2 223//2 224//2
f  225//2 223//2 221//2
f  222//2 221//2 224//2
f  226//2 222//2 227//2
f  222//2 224//2 227//2
f  227//2 228//2 226//2
f  229//2 230//2 227//2
f  230//2 228//2 227//2
f  231//2 229//2 232//2
f  231//2 230//2 229//2
f  232//2 233//2 231//2
f  234//2 233//2 232//2
f  235//2 233//2 234//2
f  236//2 234//2 237//2
f  236//2 235//2 234//2
f  238//2 236//2 237//2
f  239//2 238//2 237//2
f  240//2 241//2 238//2
f  240//2 238//2 239//2
f  242//2 243//2 240//2
f  243//2 241//2 240//2
f  242//2 244//2 243//2
f  242//2 245//2 244//2
f  246//2 244//2 245//2
f  245//2 247//2 246//2
f  247//2 248//2 246//2
f  247//2 249//2 248//2
f  249//2 250//2 248//2
f  249//2 251//2 250//2
f  251//2 252//2 250//2
f  250//2 252//2 253//2
f  253//2 252//2 254//2
f  255//2 253//2 256//2
f  253//2 254//2 256//2
f  257//2 255//2 258//2
f  255//2 259//2 258//2
f  255//2 256//2 259//2
f  257//2 258//2 260//2
f  260//2 136//2 257//2
f  135//2 136//2 260//2
f  44//3 223//3 47//3
f  44//3 224//3 223//3
f  40//4 224//4 44//4
f  40//4 227//4 224//4
f  38//5 227//5 40//5
f  38//5 229//5 227//5
f  36//6 229//6 38//6
f  36//6 232//6 229//6
f  33//7 232//7 36//7
f  33//7 234//7 232//7
f  31//8 234//8 33//8
f  31//8 237//8 234//8
f  30//9 237//9 31//9
f  30//9 239//9 237//9
f  27//10 239//10 30//10
f  27//10 240//10 239//10
f  25//11 240//11 27//11
f  25//11 242//11 240//11
f  23//12 242//12 25//12
f  23//12 245//12 242//12
f  22//13 245//13 23//13
f  22//13 247//13 245//13
f  20//14 247//14 22//14
f  20//14 249//14 247//14
f  18//15 249//15 20//15
f  18//15 251//15 249//15
f  16//16 251//16 18//16
f  16//16 252//16 251//16
f  15//17 252//17 16//17
f  15//17 254//17 252//17
f  13//18 254//18 15//18
f  13//18 256//18 254//18
f  12//19 256//19 13//19
f  12//19 259//19 256//19
f  10//20 259//20 12//20
f  10//20 258//20 259//20
f  8//21 258//21 10//21
f  8//21 260//21 258//21
f  6//22 260//22 8//22
f  6//22 135//22 260//22
f  1//23 135//23 6//23
f  1//23 133//23 135//23
f  5//24 133//24 1//24
f  5//24 137//24 133//24
f  129//25 137//25 5//25
f  129//25 139//25 137//25
f  130//26 139//26 129//26
f  130//26 141//26 139//26
f  127//27 141//27 130//27
f  127//27 144//27 141//27
f  126//28 144//28 127//28
f  126//28 142//28 144//28
f  124//29 142//29 126//29
f  124//29 145//29 142//29
f  122//30 145//30 124//30
f  122//30 146//30 145//30
f  120//31 146//31 122//31
f  120//31 148//31 146//31
f  119//32 148//32 120//32
f  119//32 150//32 148//32
f  117//33 150//33 119//33
f  117//33 152//33 150//33
f  115//34 152//34 117//34
f  115//34 154//34 152//34
f  113//35 154//35 115//35
f  113//35 155//35 154//35
f  111//36 155//36 113//36
f  111//36 157//36 155//36
f  109//37 157//37 111//37
f  109//37 159//37 157//37
f  107//38 159//38 109//38
f  107//38 161//38 159//38
f  106//39 161//39 107//39
f  106//39 163//39 161//39
f  104//40 163//40 106//40
f  104//40 165//40 163//40
f  103//41 165//41 104//41
f  103//41 166//41 165//41
f  101//42 166//42 103//42
f  101//42 167//42 166//42
f  100//43 167//43 101//43
f  100//43 169//43 167//43
f  98//44 169//44 100//44
f  98//44 170//44 169//44
f  97//45 170//45 98//45
f  97//45 172//45 170//45
f  95//46 172//46 97//46
f  95//46 173//46 172//46
f  94//47 173//47 95//47
f  94//47 175//47 173//47
f  91//48 175//48 94//48
f  91//48 176//48 175//48
f  89//49 176//49 91//49
f  89//49 179//49 176//49
f  87//50 179//50 89//50
f  87//50 181//50 179//50
f  85//51 181//51 87//51
f  85//51 183//51 181//51
f  83//52 183//52 85//52
f  83//52 185//52 183//52
f  81//53 185//53 83//53
f  81//53 187//53 185//53
f  79//54 187//54 81//54
f  79//54 189//54 187//54
f  77//55 189//55 79//55
f  77//55 190//55 189//55
f  74//56 190//56 77//56
f  74//56 192//56 190//56
f  73//57 192//57 74//57
f  73//57 196//57 192//57
f  71//58 196//58 73//58
f  71//58 198//58 196//58
f  68//59 198//59 71//59
f  68//59 199//59 198//59
f  65//60 199//60 68//60
f  65//60 202//60 199//60
f  61//61 202//61 65//61
f  61//61 204//61 202//61
f  59//62 204//62 61//62
f  59//62 208//62 204//62
f  58//63 208//63 59//63
f  58//63 211//63 208//63
f  56//64 211//64 58//64
f  56//64 213//64 211//64
f  54//65 213//65 56//65
f  54//65 215//65 213//65
f  52//66 215//66 54//66
f  52//66 216//66 215//66
f  51//67 216//67 52//67
f  51//67 218//67 216//67
f  49//68 218//68 51//68
f  49//68 219//68 218//68
f  45//69 219//69 49//69
f  45//69 221//69 219//69
f  48//56 221//56 45//56
f  48//56 225//56 221//56
f  47//70 225//70 48//70
f  47//70 223//70 225//70
f  46//71 220//71 42//71
f  222//71 42//71 220//71
f  50//72 217//72 46//72
f  220//72 46//72 217//72
f  53//73 214//73 50//73
f  217//73 50//73 214//73
f  55//74 212//74 53//74
f  214//74 53//74 212//74
f  57//36 210//36 55//36
f  212//36 55//36 210//36
f  60//75 206//75 57//75
f  210//75 57//75 206//75
f  62//76 207//76 60//76
f  206//76 60//76 207//76
f  63//77 209//77 62//77
f  207//77 62//77 209//77
f  64//78 205//78 63//78
f  209//78 63//78 205//78
f  66//79 203//79 64//79
f  205//79 64//79 203//79
f  67//80 201//80 66//80
f  203//80 66//80 201//80
f  69//81 200//81 67//81
f  201//81 67//81 200//81
f  70//82 197//82 69//82
f  200//82 69//82 197//82
f  72//83 195//83 70//83
f  197//83 70//83 195//83
f  75//84 194//84 72//84
f  195//84 72//84 194//84
f  76//85 193//85 75//85
f  194//85 75//85 193//85
f  78//86 191//86 76//86
f  193//86 76//86 191//86
f  80//87 188//87 78//87
f  191//87 78//87 188//87
f  82//88 186//88 80//88
f  188//88 80//88 186//88
f  84//89 184//89 82//89
f  186//89 82//89 184//89
f  86//90 182//90 84//90
f  184//90 84//90 182//90
f  88//91 180//91 86//91
f  182//91 86//91 180//91
f  90//92 178//92 88//92
f  180//92 88//92 178//92
f  92//93 177//93 90//93
f  178//93 90//93 177//93
f  93//94 174//94 92//94
f  177//94 92//94 174//94
f  96//95 171//95 93//95
f  174//95 93//95 171//95
f  99//96 168//96 96//96
f  171//96 96//96 168//96
f  102//97 164//97 99//97
f  168//97 99//97 164//97
f  105//98 162//98 102//98
f  164//98 102//98 162//98
f  108//99 160//99 105//99
f  162//99 105//99 160//99
f  110//100 158//100 108//100
f  160//100 108//100 158//100
f  112//101 156//101 110//101
f  158//101 110//101 156//101
f  114//102 153//102 112//102
f  156//102 112//102 153//102
f  116//103 151//103 114//103
f  153//103 114//103 151//103
f  118//104 149//104 116//104
f  151//104 116//104 149//104
f  121//105 147//105 118//105
f  149//105 118//105 147//105
f  123//106 143//106 121//106
f  147//106 121//106 143//106
f  125//107 140//107 123//107
f  143//107 123//107 140//107
f  128//108 138//108 125//108
f  140//108 125//108 138//108
f  4//109 134//109 128//109
f  138//109 128//109 134//109
f  3//110 131//110 4//110
f  134//110 4//110 131//110
f  2//111 132//111 3//111
f  131//111 3//111 132//111
f  7//112 136//112 2//112
f  132//112 2//112 136//112
f  9//113 257//113 7//113
f  136//113 7//113 257//113
f  11//114 255//114 9//114
f  257//114 9//114 255//114
f  14//115 253//115 11//115
f  255//115 11//115 253//115
f  17//116 250//116 14//116
f  253//116 14//116 250//116
f  19//117 248//117 17//117
f  250//117 17//117 248//117
f  21//118 246//118 19//118
f  248//118 19//118 246//118
f  24//73 244//73 21//73
f  246//73 21//73 244//73
f  26//119 243//119 24//119
f  244//119 24//119 243//119
f  28//120 241//120 26//120
f  243//120 26//120 241//120
f  29//121 238//121 28//121
f  241//121 28//121 238//121
f  32//122 236//122 29//122
f  238//122 29//122 236//122
f  34//123 235//123 32//123
f  236//123 32//123 235//123
f  35//124 233//124 34//124
f  235//124 34//124 233//124
f  37//125 231//125 35//125
f  233//125 35//125 231//125
f  39//126 230//126 37//126
f  231//126 37//126 230//126
f  41//127 228//127 39//127
f  230//127 39//127 228//127
f  43//128 226//128 41//128
f  228//128 41//128 226//128
f  42//129 222//129 43//129
f  226//129 43//129 222//129

